<svg width="" height="" viewBox="0 0 25 25" fill="currentColor" xmlns="http://www.w3.org/2000/svg">
<path d="M12.5 0C5.6125 0 0 5.6125 0 12.5C0 19.3875 5.6125 25 12.5 25C19.3875 25 25 19.3875 25 12.5C25 5.6125 19.3875 0 12.5 0ZM17.5 13.4375H13.4375V17.5C13.4375 18.0125 13.0125 18.4375 12.5 18.4375C11.9875 18.4375 11.5625 18.0125 11.5625 17.5V13.4375H7.5C6.9875 13.4375 6.5625 13.0125 6.5625 12.5C6.5625 11.9875 6.9875 11.5625 7.5 11.5625H11.5625V7.5C11.5625 6.9875 11.9875 6.5625 12.5 6.5625C13.0125 6.5625 13.4375 6.9875 13.4375 7.5V11.5625H17.5C18.0125 11.5625 18.4375 11.9875 18.4375 12.5C18.4375 13.0125 18.0125 13.4375 17.5 13.4375Z" fill="#1155A3"/>
</svg>