<svg width="21" height="20" viewBox="0 0 21 20" fill="none" xmlns="http://www.w3.org/2000/svg">
<path d="M12 9.51019H14.42C14.5516 9.51095 14.6821 9.48573 14.8039 9.43596C14.9257 9.3862 15.0366 9.31287 15.13 9.22019L19.71 4.64019C19.8037 4.54723 19.8781 4.43663 19.9289 4.31477C19.9797 4.19291 20.0058 4.0622 20.0058 3.93019C20.0058 3.79818 19.9797 3.66748 19.9289 3.54562C19.8781 3.42376 19.8037 3.31316 19.71 3.22019L17.29 0.800193C17.197 0.706464 17.0864 0.63207 16.9646 0.581301C16.8427 0.530533 16.712 0.504395 16.58 0.504395C16.448 0.504395 16.3173 0.530533 16.1954 0.581301C16.0736 0.63207 15.963 0.706464 15.87 0.800193L11.29 5.38019C11.1073 5.57183 11.0037 5.82543 11 6.09019V8.51019C11 8.77541 11.1054 9.02976 11.2929 9.2173C11.4804 9.40484 11.7348 9.51019 12 9.51019ZM13 6.51019L16.58 2.93019L17.58 3.93019L14 7.51019H13V6.51019ZM19 8.51019C18.7348 8.51019 18.4804 8.61555 18.2929 8.80309C18.1054 8.99062 18 9.24498 18 9.51019V16.5102C18 16.7754 17.8946 17.0298 17.7071 17.2173C17.5196 17.4048 17.2652 17.5102 17 17.5102H3C2.73478 17.5102 2.48043 17.4048 2.29289 17.2173C2.10536 17.0298 2 16.7754 2 16.5102V6.90019L7.88 12.7902C8.15906 13.0729 8.49149 13.2974 8.85799 13.4506C9.22449 13.6038 9.61777 13.6826 10.015 13.6826C10.4122 13.6826 10.8055 13.6038 11.172 13.4506C11.5385 13.2974 11.8709 13.0729 12.15 12.7902C12.3332 12.6033 12.4359 12.3519 12.4359 12.0902C12.4359 11.8284 12.3332 11.5771 12.15 11.3902C12.0569 11.2949 11.9456 11.2193 11.8229 11.1676C11.7001 11.1159 11.5682 11.0893 11.435 11.0893C11.3018 11.0893 11.1699 11.1159 11.0471 11.1676C10.9244 11.2193 10.8131 11.2949 10.72 11.3902C10.5331 11.5734 10.2818 11.6761 10.02 11.6761C9.75825 11.6761 9.50693 11.5734 9.32 11.3902L3.41 5.49019H8C8.26522 5.49019 8.51957 5.38484 8.70711 5.1973C8.89464 5.00976 9 4.75541 9 4.49019C9 4.22498 8.89464 3.97062 8.70711 3.78309C8.51957 3.59555 8.26522 3.49019 8 3.49019H3C2.20435 3.49019 1.44129 3.80626 0.87868 4.36887C0.316071 4.93148 0 5.69454 0 6.49019V16.4902C0 17.2858 0.316071 18.0489 0.87868 18.6115C1.44129 19.1741 2.20435 19.4902 3 19.4902H17C17.7956 19.4902 18.5587 19.1741 19.1213 18.6115C19.6839 18.0489 20 17.2858 20 16.4902V9.49019C20 9.22498 19.8946 8.97062 19.7071 8.78309C19.5196 8.59555 19.2652 8.49019 19 8.49019V8.51019Z" fill="#4C4D4D"/>
</svg>
